<svg width="220" height="51" viewBox="0 0 220 51" fill="none" xmlns="http://www.w3.org/2000/svg">
<path d="M113.19 19.7304C113.21 24.9412 110.651 27.5466 105.513 27.5466C104.259 27.5466 103.136 27.3782 102.145 27.0414C101.174 26.7045 100.334 26.2191 99.6261 25.5851C98.9383 24.9511 98.4124 24.1685 98.0482 23.2373C97.6841 22.3061 97.5021 21.256 97.5021 20.087V19.3143H102.964C102.964 19.6511 102.984 20.0078 103.025 20.3842C103.065 20.7408 103.166 21.0876 103.328 21.4244C103.49 21.7414 103.733 22.0089 104.056 22.2268C104.4 22.4249 104.876 22.524 105.482 22.524C105.948 22.524 106.322 22.4547 106.605 22.316C106.909 22.1773 107.141 21.999 107.303 21.781C107.465 21.5433 107.566 21.2857 107.607 21.0083C107.667 20.7111 107.698 20.4139 107.698 20.1167V6.26747H113.19V19.7304Z" fill="black"/>
<path d="M119.306 27.3088H113.419L122.037 6.26747H127.62L136.147 27.3088H130.23L129.168 24.3369H120.398L119.306 27.3088ZM127.438 19.4926L124.829 12.2708L122.128 19.4926H127.438Z" fill="black"/>
<path d="M141.161 16.7287C141.161 17.4816 141.252 18.2048 141.434 18.8982C141.617 19.5719 141.91 20.1762 142.314 20.7111C142.739 21.2461 143.285 21.672 143.953 21.9891C144.641 22.3061 145.49 22.4646 146.502 22.4646C146.947 22.4646 147.392 22.4249 147.837 22.3457C148.282 22.2466 148.687 22.1079 149.051 21.9296C149.415 21.7315 149.718 21.4838 149.961 21.1866C150.224 20.8894 150.396 20.5328 150.477 20.1167H145.409V15.5994H156.242V16.3721C156.242 17.8184 156.101 19.2053 155.817 20.5328C155.554 21.8405 154.988 23.0689 154.118 24.218C153.693 24.7926 153.188 25.2879 152.601 25.704C152.014 26.1201 151.377 26.4668 150.689 26.7442C150.022 27.0017 149.304 27.1999 148.535 27.3386C147.786 27.4772 147.038 27.5466 146.289 27.5466C144.61 27.5466 143.103 27.2989 141.768 26.8036C140.453 26.2885 139.32 25.5653 138.37 24.6341C137.439 23.7029 136.721 22.5735 136.215 21.2461C135.73 19.9186 135.487 18.4326 135.487 16.7882C135.487 15.1041 135.74 13.5983 136.246 12.2708C136.751 10.9235 137.47 9.79418 138.4 8.88278C139.331 7.95157 140.453 7.23831 141.768 6.74299C143.103 6.24766 144.6 6 146.259 6C147.453 6 148.585 6.1585 149.658 6.47551C150.75 6.7727 151.721 7.23831 152.571 7.87232C153.44 8.50634 154.159 9.30876 154.725 10.2796C155.291 11.2306 155.666 12.3699 155.848 13.6973H150.416C150.214 12.7661 149.759 12.1024 149.051 11.7061C148.363 11.2901 147.463 11.082 146.35 11.082C145.379 11.082 144.56 11.2504 143.892 11.5873C143.245 11.9241 142.709 12.3699 142.284 12.9246C141.879 13.4596 141.586 14.0639 141.404 14.7375C141.242 15.4112 141.161 16.0749 141.161 16.7287Z" fill="black"/>
<path d="M167.78 27.5466C164.584 27.5466 162.217 26.7144 160.68 25.0502C159.142 23.3661 158.373 20.8894 158.373 17.6203V6.26747H163.866V17.9472C163.866 18.5218 163.926 19.0865 164.048 19.6412C164.169 20.1762 164.381 20.6616 164.685 21.0975C164.988 21.5334 165.393 21.8801 165.899 22.1377C166.425 22.3952 167.072 22.524 167.841 22.524C168.65 22.524 169.307 22.3952 169.813 22.1377C170.319 21.8603 170.713 21.5036 170.996 21.0678C171.28 20.6319 171.472 20.1465 171.573 19.6115C171.674 19.0567 171.725 18.502 171.725 17.9472V6.26747H177.217V17.6203C177.217 20.8696 176.458 23.3363 174.941 25.0204C173.424 26.7045 171.037 27.5466 167.78 27.5466Z" fill="black"/>
<path d="M182.561 27.3088H176.674L185.292 6.26747H190.875L199.402 27.3088H193.485L192.423 24.3369H183.653L182.561 27.3088ZM190.693 19.4926L188.084 12.2708L185.383 19.4926H190.693Z" fill="black"/>
<path d="M210.212 6.26747C211.183 6.26747 212.174 6.35663 213.186 6.53495C214.217 6.69345 215.148 7.02037 215.977 7.51569C216.807 8.01101 217.494 8.71437 218.041 9.62577C218.587 10.5372 218.87 11.7259 218.89 13.1921C218.85 14.579 218.506 15.8173 217.859 16.907C217.232 17.9967 216.17 18.819 214.673 19.3737L219.649 27.3088H213.398L209.271 20.2059H206.631V27.3088H201.139V6.26747H210.212ZM210.242 15.4805C211.274 15.4805 212.063 15.2923 212.609 14.9158C213.176 14.5394 213.459 13.9945 213.459 13.2813C213.459 12.8454 213.378 12.4986 213.216 12.2411C213.054 11.9835 212.832 11.7854 212.548 11.6467C212.265 11.4882 211.931 11.3891 211.547 11.3495C211.163 11.2901 210.758 11.2603 210.333 11.2603H206.631V15.4805H210.242Z" fill="black"/>
<path d="M106.202 44.8703L105.276 42.4063H99.4827L98.5558 44.8703H97L101.353 33.4094H103.422L107.758 44.8703H106.202ZM102.379 34.6414L99.9627 41.1257H104.796L102.379 34.6414Z" fill="black"/>
<path d="M120.323 33.4094V39.9261C120.323 40.6502 120.235 41.3202 120.058 41.9362C119.882 42.5522 119.6 43.0872 119.214 43.541C118.839 43.9949 118.359 44.3516 117.774 44.611C117.189 44.8703 116.489 45 115.672 45C114.856 45 114.15 44.8757 113.554 44.6272C112.969 44.3678 112.489 44.0112 112.114 43.5573C111.739 43.1034 111.463 42.5684 111.286 41.9524C111.11 41.3364 111.021 40.661 111.021 39.9261V33.4094H112.461V39.9099C112.461 40.4286 112.517 40.9203 112.627 41.385C112.737 41.8497 112.919 42.255 113.173 42.6008C113.427 42.9467 113.758 43.2222 114.166 43.4276C114.585 43.6221 115.093 43.7194 115.689 43.7194C116.285 43.7194 116.787 43.6221 117.195 43.4276C117.603 43.2222 117.929 42.9467 118.172 42.6008C118.425 42.2442 118.602 41.8389 118.701 41.385C118.812 40.9203 118.867 40.4286 118.867 39.9099V33.4094H120.323Z" fill="black"/>
<path d="M127.566 44.8703V34.6901H123.809V33.4094H132.763V34.6901H129.006V44.8703H127.566Z" fill="black"/>
<path d="M141.209 45C140.294 45 139.494 44.8541 138.81 44.5623C138.125 44.2597 137.552 43.849 137.088 43.3303C136.625 42.8116 136.277 42.1956 136.045 41.4823C135.814 40.769 135.698 39.9909 135.698 39.148C135.698 38.305 135.814 37.5269 136.045 36.8136C136.277 36.0896 136.625 35.4682 137.088 34.9494C137.552 34.4307 138.125 34.0254 138.81 33.7336C139.494 33.431 140.294 33.2797 141.209 33.2797C142.114 33.2797 142.909 33.431 143.593 33.7336C144.277 34.0254 144.851 34.4307 145.314 34.9494C145.778 35.4682 146.125 36.0896 146.357 36.8136C146.589 37.5269 146.704 38.305 146.704 39.148C146.704 39.9909 146.589 40.769 146.357 41.4823C146.125 42.1956 145.778 42.8116 145.314 43.3303C144.851 43.849 144.277 44.2597 143.593 44.5623C142.909 44.8541 142.114 45 141.209 45ZM141.209 34.5604C140.514 34.5604 139.913 34.6847 139.405 34.9332C138.898 35.171 138.479 35.5006 138.147 35.9221C137.816 36.3435 137.568 36.8353 137.403 37.3972C137.237 37.9484 137.154 38.532 137.154 39.148C137.154 39.764 137.232 40.3476 137.386 40.8987C137.552 41.4499 137.8 41.9362 138.131 42.3577C138.462 42.7791 138.881 43.1142 139.389 43.3627C139.907 43.6005 140.514 43.7194 141.209 43.7194C141.905 43.7194 142.506 43.6005 143.014 43.3627C143.521 43.1142 143.935 42.7846 144.255 42.3739C144.586 41.9524 144.829 41.4661 144.983 40.9149C145.149 40.3638 145.231 39.7748 145.231 39.148C145.231 38.5212 145.149 37.9322 144.983 37.381C144.829 36.8191 144.586 36.3327 144.255 35.9221C143.924 35.5006 143.505 35.171 142.997 34.9332C142.489 34.6847 141.894 34.5604 141.209 34.5604Z" fill="black"/>
<path d="M150.623 38.7589H155.754V40.0233H150.623V38.7589Z" fill="black"/>
<path d="M162.871 44.8703V34.6901H159.114V33.4094H168.068V34.6901H164.311V44.8703H162.871Z" fill="black"/>
<path d="M173.088 40.5745V44.8703H171.648V33.4094H176.035C176.675 33.4094 177.254 33.4743 177.772 33.604C178.291 33.7336 178.732 33.939 179.097 34.22C179.461 34.5009 179.736 34.8738 179.924 35.3385C180.123 35.7924 180.222 36.3435 180.222 36.992C180.222 37.4675 180.15 37.8944 180.007 38.2726C179.863 38.64 179.67 38.9643 179.428 39.2452C179.196 39.5154 178.92 39.7424 178.6 39.9261C178.28 40.099 177.949 40.2341 177.607 40.3313L180.056 44.8703H178.484L176.15 40.5745H173.088ZM175.571 39.2939C176.001 39.2939 176.404 39.2614 176.779 39.1966C177.166 39.1318 177.502 39.0129 177.789 38.84C178.076 38.6671 178.302 38.4347 178.468 38.1429C178.644 37.8403 178.738 37.4405 178.749 36.9433C178.749 36.122 178.501 35.5438 178.004 35.2088C177.519 34.863 176.812 34.6901 175.886 34.6901H173.088V39.2939H175.571Z" fill="black"/>
<path d="M192.374 44.8703L191.447 42.4063H185.654L184.727 44.8703H183.171L187.524 33.4094H189.593L193.93 44.8703H192.374ZM188.551 34.6414L186.134 41.1257H190.967L188.551 34.6414Z" fill="black"/>
<path d="M197.437 44.8703V33.4094H199.274L205.382 42.9575V33.4094H206.822V44.8703H205.018L198.877 35.3547V44.8703H197.437Z" fill="black"/>
<path d="M215.664 34.5604C215.355 34.5604 215.04 34.5874 214.72 34.6414C214.411 34.6955 214.13 34.7927 213.876 34.9332C213.622 35.0629 213.413 35.2466 213.247 35.4844C213.093 35.7113 213.015 36.0031 213.015 36.3598C213.015 36.792 213.131 37.1433 213.363 37.4134C213.595 37.6728 213.876 37.8727 214.207 38.0132C214.472 38.1213 214.753 38.2132 215.051 38.2888C215.349 38.3645 215.653 38.4347 215.962 38.4995C216.282 38.5644 216.59 38.6292 216.888 38.6941C217.197 38.7589 217.495 38.84 217.782 38.9372C218.455 39.1642 218.99 39.4884 219.388 39.9099C219.796 40.3313 220 40.8879 220 41.5796C220 42.228 219.884 42.7629 219.652 43.1844C219.432 43.6059 219.128 43.9517 218.742 44.2219C218.367 44.4921 217.926 44.692 217.418 44.8217C216.921 44.9406 216.392 45 215.829 45C215.266 45 214.726 44.946 214.207 44.8379C213.7 44.7298 213.236 44.5515 212.817 44.3029C212.397 44.0544 212.039 43.7302 211.741 43.3303C211.443 42.9305 211.233 42.4441 211.112 41.8714H212.618C212.729 42.2388 212.9 42.5414 213.131 42.7791C213.363 43.0169 213.628 43.206 213.926 43.3465C214.224 43.487 214.544 43.5843 214.886 43.6383C215.239 43.6923 215.586 43.7194 215.928 43.7194C216.259 43.7194 216.579 43.6869 216.888 43.6221C217.208 43.5465 217.49 43.433 217.732 43.2817C217.975 43.1304 218.168 42.9359 218.312 42.6981C218.455 42.4603 218.527 42.174 218.527 41.8389C218.527 41.331 218.389 40.9528 218.113 40.7042C217.837 40.4556 217.468 40.2665 217.004 40.1368C216.695 40.0396 216.37 39.9585 216.028 39.8937C215.686 39.8288 215.344 39.7586 215.002 39.6829C214.659 39.6073 214.323 39.5208 213.992 39.4236C213.661 39.3155 213.357 39.1912 213.082 39.0507C212.64 38.8454 212.271 38.532 211.973 38.1105C211.675 37.6782 211.526 37.1379 211.526 36.4894C211.526 35.8842 211.647 35.3763 211.89 34.9656C212.133 34.555 212.447 34.2254 212.833 33.9768C213.22 33.7282 213.65 33.5499 214.124 33.4418C214.61 33.3338 215.123 33.2797 215.664 33.2797C216.105 33.2905 216.502 33.3284 216.855 33.3932C217.219 33.4472 217.561 33.5499 217.881 33.7012C218.378 33.9174 218.792 34.2416 219.123 34.6739C219.454 35.1061 219.636 35.6627 219.669 36.3435H218.262C218.218 36.0085 218.113 35.7275 217.948 35.5006C217.793 35.2736 217.6 35.0899 217.368 34.9494C217.137 34.8089 216.872 34.7117 216.574 34.6576C216.287 34.5928 215.984 34.5604 215.664 34.5604Z" fill="black"/>
<g clip-path="url(#clip0_159_214)">
<path d="M35.3989 0.328579C34.5496 0.497696 33.4614 1.03106 32.8111 1.59044C32.3334 2.00673 32.121 2.09779 31.7495 2.08478C30.794 2.03275 27.264 2.26691 25.9768 2.46204C22.9378 2.94337 19.023 3.90602 16.8864 4.71258C14.0731 5.7663 12.9318 6.53382 10.3839 9.05754C7.35818 12.0626 4.61117 14.131 3.44336 14.3001C2.68694 14.4172 1.3997 15.1327 0.921956 15.7051L0.537109 16.1734L0.762709 16.7718C0.988309 17.3312 1.02812 17.3702 1.47932 17.3702C1.94379 17.3702 2.56751 17.2531 3.21776 17.045C3.50972 16.9539 3.52299 16.967 3.37701 17.1491C3.17795 17.3832 1.83762 18.0207 1.55894 18.0207C1.29353 18.0207 1.29353 18.0337 1.77127 18.9703C2.84619 21.0648 4.33249 22.7819 6.13729 24.0308C6.93352 24.5772 9.42839 25.9561 9.62745 25.9561C9.68053 25.9561 9.48147 25.6439 9.18952 25.2796C8.44637 24.304 7.37145 22.1965 7.25201 21.468C7.06623 20.1671 7.87573 18.2678 8.77813 17.8906C9.54782 17.5784 10.145 18.0467 11.2199 19.7899C12.5337 21.9233 13.3167 24.4601 13.7679 28.0765C14.2456 31.9012 13.7148 35.5957 12.5337 36.5063C11.6844 37.1567 10.0388 36.5583 9.45493 35.4005C9.21606 34.9062 9.17625 34.633 9.21606 33.9566C9.2426 33.4882 9.22933 33.111 9.17625 33.111C8.99046 33.111 8.38001 34.1387 8.30039 34.594C8.24731 34.9192 8.39328 35.9079 8.72505 37.508C9.09662 39.2772 9.20279 40.0707 9.13643 40.435C9.03027 41.0074 8.35347 41.8009 7.67667 42.1522C7.41126 42.2953 7.19893 42.4384 7.19893 42.4774C7.19893 42.6205 9.64072 45.2743 9.79996 45.3133C10.2777 45.4304 12.5602 43.6612 13.6352 42.3603C15.9442 39.5374 16.7803 36.4413 16.2229 32.7077C16.0637 31.693 15.9708 30.8084 15.984 30.7434C16.0371 30.5873 17.1519 32.4735 17.1519 32.7077C17.1519 32.9809 17.3111 32.8378 18.678 31.3548C19.3946 30.5612 20.788 29.1173 21.7833 28.1416L23.5748 26.3464L23.0307 25.8C22.4468 25.2016 21.1994 23.3803 21.3055 23.2763C21.3454 23.2372 21.5975 23.4844 21.8762 23.8096C22.553 24.6032 23.9862 25.6569 25.3929 26.3984L26.5341 26.9968L27.4498 26.3203C29.3608 24.9154 32.1609 21.8973 33.2889 20.011C34.5894 17.8385 34.8813 16.6547 34.7354 14.2741C34.6823 13.3635 34.6425 12.5309 34.6292 12.4268C34.6292 12.3228 34.669 11.9715 34.7088 11.6463L34.815 11.0479L34.0453 10.8007C33.0102 10.4495 31.9485 9.74702 31.1788 8.91445C30.8338 8.53719 30.5817 8.19896 30.6082 8.17294C30.648 8.13391 30.9267 8.29002 31.2452 8.49817C32.6917 9.47383 34.523 9.87711 35.5316 9.46082C36.3544 9.12259 37.0975 7.5225 37.3762 5.50612C37.6018 3.867 37.9336 2.9824 38.7829 1.73354L39.4199 0.796902L39.0217 0.627785C38.1326 0.250526 36.4738 0.120438 35.3989 0.328579ZM26.9323 8.87542C27.1048 9.53888 27.0517 17.4873 26.8659 18.3459C26.5607 19.6988 26.0299 21.1688 25.4194 22.3526C24.809 23.4974 24.5701 23.7446 24.8222 22.938C25.6716 20.2842 25.645 15.6921 24.7559 11.9195L24.5303 10.9568L23.3227 11.0349C21.916 11.139 20.5358 11.4902 19.169 12.1146C18.6116 12.3618 18.1471 12.5439 18.1206 12.5049C18.0543 12.4529 19.5406 11.178 20.3235 10.6316C21.9293 9.49985 24.5436 8.56321 26.2024 8.53719C26.7863 8.52418 26.8394 8.5502 26.9323 8.87542ZM16.1566 9.4348C16.1168 9.49985 15.9973 9.56489 15.9177 9.56489C15.5727 9.56489 14.3783 10.4885 13.9006 11.126C13.6219 11.4902 13.2636 12.1276 13.0911 12.5309L12.7991 13.2594L12.7062 12.7781L12.6133 12.2968H11.5384H10.4768L10.7289 12.0236C11.618 11.0479 13.5555 9.95516 15.0816 9.56489C16.1964 9.2787 16.2627 9.26569 16.1566 9.4348ZM28.9096 11.3861L29.8252 12.622L29.8651 13.8969C29.9845 17.084 29.0555 20.1541 27.0782 23.0551C26.627 23.7186 26.2289 24.2389 26.2024 24.1999C26.1758 24.1739 26.3616 23.6405 26.6138 23.0031C27.264 21.429 27.7418 19.6858 27.9806 18.0467C28.2195 16.4206 28.2726 13.0643 28.0603 12.0366C27.8214 10.8528 27.7285 9.87711 27.8745 10.0202C27.9408 10.0852 28.4053 10.7097 28.9096 11.3861Z" fill="#FA542E"/>
<path d="M47.7409 2.55312C44.5427 2.8133 41.4772 3.47675 39.7785 4.29631L38.8496 4.75162L40.5084 4.67357C43.2952 4.55649 51.3505 4.59551 53.2482 4.75162C55.8094 4.94675 57.0435 5.35003 58.2379 6.36472C58.9014 6.9111 59.6711 8.02986 59.9896 8.84942C60.1887 9.38279 60.4143 9.62995 60.4143 9.31774C60.4143 9.04455 62.6039 6.95012 63.3736 6.4818C64.7936 5.61021 66.7576 4.88171 67.7131 4.88171C67.8989 4.88171 68.1908 4.84268 68.3633 4.79065C68.934 4.64755 64.276 3.52879 60.8787 2.99542C57.2957 2.43604 51.7221 2.25391 47.7409 2.55312Z" fill="#FA542E"/>
<path d="M71.3219 6.06541C66.5179 6.67683 62.2315 9.53878 60.2144 13.4675C60.0153 13.8577 59.8295 14.196 59.8163 14.222C59.7897 14.248 59.458 14.0659 59.0731 13.8187C57.3214 12.726 55.2379 11.8674 52.9156 11.308C51.1241 10.8657 47.9391 10.7486 46.068 11.0478C44.0907 11.36 43.9845 11.4381 45.3514 11.6332C47.8064 11.9714 50.7923 12.9081 52.6634 13.9228C54.455 14.8984 56.2598 16.4205 57.3479 17.8905C58.5025 19.4125 59.0731 20.7264 60.2144 24.525C61.3026 28.1415 62.3642 30.4701 64.0894 33.0328C68.2962 39.2381 74.2812 43.8953 81.089 46.2629C81.6994 46.471 82.2435 46.6401 82.2833 46.6401C82.3364 46.6401 81.8454 46.3279 81.1819 45.9507C77.8642 44.0384 75.2632 42.087 72.6091 39.4852C67.0222 34.0345 63.9036 28.5838 63.0012 22.7298C62.4837 19.3345 62.9747 16.7717 64.7131 13.8968C66.9824 10.1372 69.4772 8.42002 73.2594 8.00374C75.8073 7.73055 78.5808 8.19887 80.9297 9.31763C82.3895 10.0071 83.1725 10.5405 84.2872 11.5682C84.6853 11.9324 84.9109 12.0885 84.7915 11.9064C84.6588 11.7243 84.5128 11.4641 84.4464 11.321C84.0881 10.5405 82.3762 8.87533 81.0226 8.00374C78.3951 6.29957 74.9182 5.6101 71.3219 6.06541Z" fill="#FA542E"/>
<path d="M35.9561 16.9409C35.8632 18.2158 35.4916 19.3866 34.8679 20.3883C34.5892 20.8176 34.4034 21.1818 34.4167 21.1948C34.4432 21.2209 34.8015 21.1948 35.1996 21.1298C37.0177 20.8696 39.6453 21.0778 41.5562 21.6241C43.8919 22.2876 46.2408 23.7836 49.2399 26.5545C52.04 29.1563 56.5653 34.0867 58.9141 37.1047C62.8688 42.2042 66.4253 45.2093 72.6226 48.6566C73.8435 49.3331 77.4398 51.0633 77.5062 50.9982C77.5593 50.9462 76.4578 46.7573 76.3251 46.4971C76.2588 46.3671 75.8739 46.224 75.3829 46.1199C74.0824 45.8467 71.8795 45.1052 70.5657 44.4938C67.8187 43.2059 65.5627 41.4107 62.6034 38.1845C62.3114 37.8592 60.9976 36.3242 59.6971 34.7631C55.7159 29.9889 53.7386 27.9335 50.5935 25.2926C48.4835 23.5234 46.0815 21.8323 43.4274 20.2712C42.0605 19.4647 42.0473 19.4517 42.5648 19.4517C43.4805 19.4517 45.4313 19.8419 46.8777 20.3102C49.0541 21.0257 51.1509 22.2095 52.8495 23.6926L53.5661 24.33L53.2476 23.8096C52.3319 22.3136 50.6599 20.5964 49.1337 19.5817C47.3289 18.3719 43.9449 17.045 41.2378 16.4726C40.0965 16.2254 37.5353 15.9393 36.5134 15.9393H36.0357L35.9561 16.9409Z" fill="#FA542E"/>
<path d="M32.6915 24.1608C32.0412 24.9023 31.5104 25.5137 31.5237 25.5268C31.537 25.5268 32.081 25.3706 32.718 25.1495C35.1598 24.356 36.8452 24.0828 39.3799 24.0958C41.5695 24.1088 43.6264 24.486 45.5109 25.2276L46.6787 25.6829L46.1213 25.1885C45.3118 24.473 44.0644 23.7706 42.9496 23.4063C41.742 23.016 39.7249 22.8339 36.3674 22.8339H33.8858L32.6915 24.1608Z" fill="#FA542E"/>
</g>
<defs>
<clipPath id="clip0_159_214">
<rect width="85" height="51" fill="white"/>
</clipPath>
</defs>
</svg>
